<?xml version="1.0" standalone="no"?>
<!DOCTYPE svg PUBLIC "-//W3C//DTD SVG 20010904//EN"
 "http://www.w3.org/TR/2001/REC-SVG-20010904/DTD/svg10.dtd">
<svg version="1.0" xmlns="http://www.w3.org/2000/svg"
 width="152.000000pt" height="152.000000pt" viewBox="0 0 152.000000 152.000000"
 preserveAspectRatio="xMidYMid meet">
<metadata>
Created by potrace 1.11, written by Peter Selinger 2001-2013
</metadata>
<g transform="translate(0.000000,152.000000) scale(0.100000,-0.100000)"
fill="#000000" stroke="none">
<path d="M459 1453 c-31 -4 -60 -29 -233 -202 -195 -196 -197 -198 -194 -237
3 -38 4 -40 133 -116 160 -95 172 -103 114 -76 -67 30 -79 22 -79 -55 0 -84
15 -102 136 -167 77 -42 98 -50 109 -40 20 16 20 116 1 152 l-15 28 27 -14
c15 -7 43 -11 64 -9 32 5 54 25 212 199 131 144 182 194 199 194 13 0 95 -29
184 -65 88 -36 171 -66 184 -67 21 -3 24 1 24 31 0 35 -1 36 -155 119 -175 94
-624 317 -655 324 -11 2 -36 3 -56 1z m19 -167 c15 -8 35 -23 44 -34 14 -17
14 -21 3 -26 -8 -3 -17 -1 -20 4 -7 12 -61 12 -90 1 -18 -7 -17 -10 14 -25 31
-17 36 -17 77 -1 24 9 44 21 44 26 0 6 5 7 10 4 6 -3 10 -20 10 -37 0 -22 -16
-53 -57 -107 -32 -42 -58 -77 -59 -79 -1 -1 -29 14 -63 34 l-62 37 3 90 3 91
55 17 c30 9 56 17 58 18 2 1 15 -5 30 -13z m-143 -516 c51 -28 96 -57 99 -66
8 -21 8 -119 0 -127 -7 -7 -166 75 -196 101 -14 11 -18 30 -18 79 0 40 4 63
11 63 6 0 53 -23 104 -50z"/>
<path d="M1230 806 c0 -9 8 -16 18 -16 33 0 55 -26 61 -71 l6 -44 45 3 c88 6
134 -70 73 -118 -28 -22 -45 -22 -115 -5 -26 7 -28 5 -28 -27 0 -44 -23 -76
-63 -86 -29 -8 -32 -12 -30 -43 4 -58 -5 -79 -43 -95 -42 -18 -98 -5 -114 27
-13 23 -37 24 -64 4 -11 -8 -32 -15 -46 -15 -37 0 -51 -17 -38 -45 17 -38 2
-74 -38 -91 -45 -19 -88 -6 -120 33 l-21 27 -39 -17 c-22 -10 -55 -16 -74 -15
-33 3 -34 1 -41 -36 -12 -72 -86 -100 -144 -54 -25 19 -27 25 -21 70 7 47 6
48 -19 48 -40 0 -82 26 -93 60 -10 29 -14 30 -66 30 -43 0 -61 5 -76 20 -23
23 -25 41 -8 88 11 29 10 35 -4 43 -55 30 -64 81 -22 118 29 25 26 36 -5 26
-23 -7 -51 -53 -51 -83 0 -11 13 -36 30 -57 23 -29 27 -41 20 -55 -17 -31 -11
-58 18 -91 23 -26 38 -33 79 -36 42 -4 55 -11 73 -35 12 -16 37 -36 56 -44 25
-11 34 -20 34 -38 0 -42 18 -75 52 -96 64 -39 138 -14 168 55 17 41 20 42 75
49 51 6 60 4 87 -19 67 -56 180 -14 182 68 2 42 6 47 51 63 31 10 38 9 67 -12
46 -35 108 -33 149 4 26 23 31 35 31 70 -1 38 2 43 35 59 26 12 41 28 51 56
14 35 19 38 46 34 44 -6 92 10 116 40 47 60 5 134 -83 147 -37 6 -47 11 -47
26 0 27 -49 78 -82 86 -22 5 -28 3 -28 -10z"/>
<path d="M861 776 c-120 -46 -122 -50 -119 -210 3 -128 4 -131 26 -134 36 -5
202 58 218 83 11 17 14 53 12 156 l-3 134 -25 2 c-14 1 -63 -13 -109 -31z"/>
<path d="M1085 672 c-26 -33 -8 -29 21 5 17 20 69 5 85 -23 11 -21 10 -27 -10
-45 -22 -21 -75 -38 -115 -39 -16 0 -18 5 -12 33 5 27 4 29 -6 12 -6 -11 -15
-23 -20 -26 -5 -3 -8 -23 -6 -44 2 -27 11 -44 30 -58 27 -20 28 -20 88 -2 33
10 64 23 69 29 16 20 19 66 5 77 -11 9 -11 14 0 31 12 17 11 22 -11 44 -13 13
-30 24 -38 24 -8 0 -15 5 -15 10 0 23 -37 7 -65 -28z"/>
<path d="M1341 639 l-25 -10 23 -15 c25 -18 26 -18 35 14 8 24 3 26 -33 11z"/>
<path d="M227 423 c-14 -4 -16 -8 -6 -19 15 -19 35 -18 43 2 10 26 6 28 -37
17z"/>
<path d="M1088 413 c-22 -6 -23 -17 -3 -33 13 -11 18 -10 29 6 8 10 12 22 10
26 -5 8 -8 8 -36 1z"/>
<path d="M748 323 c-23 -6 -23 -20 0 -32 14 -7 21 -5 29 9 7 10 9 21 6 24 -7
6 -8 6 -35 -1z"/>
<path d="M498 273 c-22 -6 -23 -22 -2 -30 15 -5 33 11 34 30 0 7 -4 7 -32 0z"/>
</g>
</svg>
